<?xml version="1.0" encoding="UTF-8"?>
<svg xmlns="http://www.w3.org/2000/svg" xmlns:xlink="http://www.w3.org/1999/xlink" width="75px" height="75px" viewBox="0 0 75 75" version="1.1">
<g id="surface1">
<path d="M 46.695312 12.300781 C 46.320312 13.152344 45.929688 13.273438 45.359375 12.734375 C 45.074219 12.480469 44.972656 12.449219 44.699219 12.601562 C 44.429688 12.75 44.324219 12.722656 44.039062 12.464844 C 43.574219 12.015625 43.425781 12.074219 43.214844 12.734375 C 43.125 13.050781 42.945312 13.363281 42.824219 13.410156 C 42.707031 13.457031 42.601562 13.636719 42.601562 13.800781 C 42.601562 14.160156 42.316406 14.714844 42.042969 14.894531 C 41.941406 14.957031 41.851562 15.121094 41.851562 15.253906 C 41.851562 15.390625 41.683594 15.839844 41.488281 16.261719 C 41.070312 17.144531 40.5 18.914062 40.5 19.351562 C 40.5 19.5 40.441406 19.664062 40.363281 19.710938 C 40.289062 19.753906 40.183594 20.054688 40.125 20.355469 C 40.066406 20.667969 39.929688 21.121094 39.808594 21.375 C 39.464844 22.125 39.148438 23.113281 39.148438 23.460938 C 39.148438 23.640625 39.074219 23.863281 38.984375 23.957031 C 38.699219 24.238281 38.101562 25.816406 37.933594 26.699219 C 37.847656 27.148438 37.679688 27.691406 37.542969 27.886719 C 37.304688 28.261719 36.375 30.898438 36.164062 31.800781 C 36.105469 32.085938 35.894531 32.597656 35.730469 32.925781 C 35.550781 33.253906 35.398438 33.628906 35.398438 33.777344 C 35.398438 33.914062 35.308594 34.125 35.191406 34.230469 C 35.085938 34.351562 34.949219 34.664062 34.902344 34.949219 C 34.800781 35.625 33.402344 39.660156 33.269531 39.722656 C 33.210938 39.75 33.089844 40.035156 33 40.363281 C 32.910156 40.679688 32.773438 40.949219 32.699219 40.949219 C 32.582031 40.949219 31.050781 36.402344 31.050781 36.027344 C 31.050781 35.925781 30.914062 35.582031 30.75 35.25 C 30.554688 34.859375 30.511719 34.636719 30.613281 34.574219 C 30.722656 34.5 30.691406 34.378906 30.554688 34.230469 C 30.433594 34.082031 30.179688 33.496094 29.984375 32.925781 C 29.566406 31.621094 29.503906 31.441406 29.113281 30.601562 C 28.949219 30.226562 28.558594 29.113281 28.261719 28.125 C 27.960938 27.136719 27.496094 25.890625 27.210938 25.351562 C 26.429688 23.835938 25.648438 22.035156 25.648438 21.75 C 25.648438 21.601562 25.542969 21.402344 25.425781 21.300781 C 25.304688 21.195312 25.199219 21.027344 25.199219 20.925781 C 25.199219 20.804688 24.707031 19.726562 24.105469 18.496094 C 23.488281 17.277344 22.902344 15.945312 22.800781 15.523438 C 22.636719 14.957031 22.378906 14.582031 21.660156 13.859375 C 20.683594 12.871094 20.292969 12.734375 18.644531 12.75 C 18.285156 12.765625 17.851562 12.675781 17.667969 12.585938 C 17.476562 12.480469 17.070312 12.402344 16.769531 12.433594 C 16.457031 12.449219 15.824219 12.359375 15.375 12.226562 C 14.609375 12 14.519531 12 14.292969 12.238281 C 14.054688 12.480469 13.441406 12.480469 12.074219 12.226562 C 11.128906 12.042969 11.160156 11.878906 11.277344 18.75 C 11.355469 22.738281 11.292969 24.722656 10.964844 30.148438 C 10.890625 31.351562 10.753906 33.976562 10.664062 36 C 10.574219 38.023438 10.425781 40.542969 10.335938 41.625 C 10.230469 42.691406 10.125 45.929688 10.082031 48.824219 C 10.050781 51.707031 9.976562 54.765625 9.945312 55.605469 C 9.871094 57.316406 9.960938 57.570312 11.070312 58.605469 C 11.582031 59.085938 11.609375 59.101562 13.003906 59.101562 C 14.113281 59.101562 14.429688 59.144531 14.488281 59.324219 C 14.550781 59.445312 14.699219 59.550781 14.835938 59.550781 C 14.984375 59.550781 15.238281 59.714844 15.417969 59.925781 C 15.886719 60.449219 16.140625 60.402344 16.964844 59.625 C 17.355469 59.25 17.820312 58.949219 17.972656 58.949219 C 18.136719 58.949219 18.417969 58.832031 18.601562 58.679688 C 18.929688 58.425781 18.945312 58.273438 19.066406 54.886719 C 19.140625 52.949219 19.261719 50.085938 19.351562 48.523438 C 19.425781 46.949219 19.527344 43.847656 19.589844 41.625 C 19.636719 39.390625 19.738281 36.792969 19.816406 35.851562 C 19.890625 34.902344 19.964844 32.820312 19.980469 31.214844 C 19.996094 28.335938 19.996094 28.304688 20.277344 28.636719 C 20.429688 28.832031 20.597656 29.160156 20.640625 29.386719 C 20.773438 30.058594 21.792969 33.210938 21.929688 33.390625 C 22.125 33.660156 21.898438 34.050781 21.539062 34.066406 C 21.300781 34.082031 21.332031 34.109375 21.660156 34.183594 C 22.050781 34.273438 22.125 34.394531 22.589844 35.925781 C 22.875 36.824219 23.25 37.917969 23.398438 38.324219 C 23.566406 38.746094 23.699219 39.210938 23.699219 39.359375 C 23.699219 39.585938 24.332031 41.652344 24.914062 43.273438 C 24.960938 43.441406 25.097656 43.949219 25.199219 44.398438 C 25.289062 44.851562 25.5 45.660156 25.664062 46.199219 C 25.816406 46.738281 26.191406 48.042969 26.488281 49.109375 C 27.089844 51.253906 27.496094 51.855469 28.753906 52.605469 C 29.113281 52.816406 29.535156 53.234375 29.730469 53.566406 C 29.925781 53.910156 30.402344 54.390625 30.855469 54.691406 C 31.289062 54.976562 31.648438 55.273438 31.648438 55.335938 C 31.648438 55.394531 31.902344 55.558594 32.222656 55.710938 C 32.519531 55.847656 32.957031 56.054688 33.179688 56.191406 C 33.871094 56.566406 35.023438 56.625 35.699219 56.324219 C 36.027344 56.175781 36.300781 55.996094 36.300781 55.917969 C 36.300781 55.859375 36.402344 55.800781 36.523438 55.800781 C 36.691406 55.800781 36.75 55.621094 36.75 55.125 C 36.75 54.539062 36.808594 54.433594 37.167969 54.238281 C 37.472656 54.074219 37.769531 53.652344 38.234375 52.621094 C 38.597656 51.855469 39.105469 50.789062 39.375 50.25 C 39.644531 49.710938 39.914062 49.109375 39.976562 48.898438 C 40.140625 48.347656 41.414062 44.925781 41.925781 43.726562 C 42.027344 43.472656 42.300781 42.660156 42.523438 41.925781 C 42.75 41.175781 43.019531 40.363281 43.125 40.125 C 43.320312 39.660156 43.394531 39.449219 43.964844 37.5 C 44.144531 36.886719 44.386719 36.148438 44.503906 35.863281 C 44.625 35.582031 44.773438 35.070312 44.851562 34.738281 C 44.925781 34.394531 45.089844 33.75 45.238281 33.300781 C 45.375 32.851562 45.539062 32.175781 45.601562 31.800781 C 45.675781 31.425781 45.929688 30.496094 46.183594 29.714844 C 46.425781 28.949219 46.589844 28.214844 46.542969 28.097656 C 46.484375 27.960938 46.558594 27.792969 46.695312 27.722656 C 46.847656 27.644531 46.949219 27.464844 46.949219 27.316406 C 46.949219 27.179688 47.039062 26.941406 47.144531 26.789062 C 47.339844 26.519531 47.355469 26.519531 47.460938 26.773438 C 47.566406 27.042969 47.878906 31.933594 47.925781 33.839844 C 47.941406 34.425781 47.984375 34.964844 48.027344 35.039062 C 48.164062 35.265625 48.300781 37.769531 48.480469 42.765625 C 48.675781 48.734375 48.675781 48.300781 48.523438 49.832031 C 48.402344 51.179688 48.570312 52.351562 48.960938 52.800781 C 49.082031 52.917969 49.199219 53.191406 49.246094 53.398438 C 49.304688 53.609375 49.558594 53.894531 49.832031 54.058594 C 50.625 54.511719 51 54.929688 51 55.335938 C 51.015625 55.726562 51.613281 56.550781 51.886719 56.550781 C 51.976562 56.550781 52.152344 56.773438 52.289062 57.027344 C 52.726562 57.886719 53.925781 58.949219 54.433594 58.949219 C 54.75 58.949219 54.914062 59.039062 54.976562 59.25 C 55.066406 59.519531 55.152344 59.535156 55.917969 59.460938 C 56.386719 59.398438 56.863281 59.277344 56.972656 59.175781 C 57.285156 58.890625 57.660156 56.144531 57.464844 55.5 C 57.390625 55.214844 57.316406 53.730469 57.316406 52.199219 C 57.300781 48.855469 57 42.722656 56.773438 41.25 C 56.667969 40.621094 56.503906 38.222656 56.207031 33.269531 C 56.070312 31.230469 55.933594 29.503906 55.902344 29.445312 C 55.859375 29.386719 55.726562 28.351562 55.574219 27.148438 C 55.351562 25.097656 55.167969 24.042969 54.675781 21.75 C 54.554688 21.210938 54.375 20.265625 54.285156 19.648438 C 54.195312 19.035156 54.015625 18.269531 53.894531 17.972656 C 53.761719 17.667969 53.699219 17.308594 53.746094 17.175781 C 53.878906 16.859375 53.308594 15.792969 52.847656 15.480469 C 51.808594 14.761719 51.433594 14.355469 51.511719 14.023438 C 51.585938 13.726562 51.523438 13.679688 50.984375 13.589844 C 50.625 13.527344 50.234375 13.351562 50.039062 13.125 C 49.769531 12.839844 49.589844 12.765625 49.261719 12.839844 C 48.929688 12.898438 48.675781 12.808594 48.195312 12.449219 C 47.835938 12.179688 47.550781 11.878906 47.550781 11.761719 C 47.550781 11.640625 47.429688 11.550781 47.292969 11.550781 C 47.113281 11.550781 46.902344 11.820312 46.695312 12.300781 Z M 46.695312 12.300781"/>
<path d="M 64.273438 51.238281 C 63.707031 51.523438 63.121094 51.886719 63 52.035156 C 62.878906 52.183594 62.355469 52.527344 61.832031 52.800781 C 60.253906 53.609375 59.910156 55.050781 60.929688 56.566406 C 61.082031 56.804688 61.753906 57.238281 62.503906 57.613281 C 63.238281 57.976562 63.898438 58.351562 63.976562 58.457031 C 64.066406 58.558594 64.605469 58.753906 65.175781 58.890625 C 65.761719 59.023438 66.433594 59.207031 66.675781 59.292969 C 67.351562 59.535156 68.640625 59.429688 69.195312 59.101562 C 69.464844 58.933594 69.792969 58.800781 69.929688 58.800781 C 70.230469 58.800781 70.5 58.363281 70.5 57.914062 C 70.5 57.75 70.636719 57.390625 70.800781 57.121094 C 71.128906 56.566406 71.207031 55.558594 70.917969 55.457031 C 70.769531 55.410156 70.785156 55.273438 70.980469 54.855469 C 71.234375 54.332031 71.234375 54.316406 70.902344 54.210938 C 70.5 54.089844 69.148438 52.816406 69.148438 52.527344 C 69.148438 52.425781 68.957031 52.214844 68.714844 52.082031 C 68.460938 51.945312 68.207031 51.691406 68.113281 51.511719 C 67.949219 51.136719 67.320312 50.910156 66.148438 50.804688 C 65.429688 50.730469 65.191406 50.789062 64.273438 51.238281 Z M 64.273438 51.238281" />
</g>
</svg>
